<svg xmlns="http://www.w3.org/2000/svg" xmlns:xlink="http://www.w3.org/1999/xlink" height="40" viewBox="0 0 256 124">
  <defs>
    <linearGradient id="a" x1="44.3619" x2="206.4399" y1="6.8076" y2="81.8437" gradientUnits="userSpaceOnUse">
      <stop offset=".0002" stop-color="#1098ff"/>
      <stop offset=".9996" stop-color="#40c4ff"/>
    </linearGradient>
    <linearGradient xlink:href="#a" id="b" x1="29.3172" x2="191.3951" y1="39.3043" y2="114.3404"/>
    <linearGradient xlink:href="#a" id="c" x1="16.5235" x2="178.6015" y1="66.9385" y2="141.9746"/>
  </defs>
  <g>
    <path fill="url(#a)" d="m138.5149 23.046 94.2911 17.0056v51.1729L138.5149 100.2V23.046m-9.9535-17.852a5.958 5.958 0 0 0-5.9434 5.9572v106.5305l120.6935-11.4884a5.9555 5.9555 0 0 0 5.3913-5.9289V26.7655L129.6307 5.29a6.02 6.02 0 0 0-1.0693-.0963Z"/>
    <path fill="url(#b)" d="M34.886 44.8973a2.9626 2.9626 0 0 0-2.0875 2.83v8.84l30.1991-5.5654v28.146a5.97 5.97 0 0 1-6.5476 5.9415l-23.6516-2.3v10.2851l66.61 10.8711a5.9669 5.9669 0 0 0 6.928-5.889V22.8027Z"/>
    <path fill="url(#c)" d="M9.0169 60.95a2.9834 2.9834 0 0 0-2.4428 2.934v16.3544l26.2244 2.5506V56.5672Z"/>
  </g>
</svg>